<svg width="20" height="20" viewBox="0 0 20 20" fill="none" xmlns="http://www.w3.org/2000/svg">
<path fill-rule="evenodd" clip-rule="evenodd" d="M7.5 4.375C7.5 4.20924 7.56585 4.05027 7.68306 3.93306C7.80027 3.81585 7.95924 3.75 8.125 3.75H18.125C18.2908 3.75 18.4497 3.81585 18.5669 3.93306C18.6842 4.05027 18.75 4.20924 18.75 4.375V15.625C18.75 15.7908 18.6842 15.9497 18.5669 16.0669C18.4497 16.1842 18.2908 16.25 18.125 16.25H8.125C7.95924 16.25 7.80027 16.1842 7.68306 16.0669C7.56585 15.9497 7.5 15.7908 7.5 15.625V13.125C7.5 12.9592 7.43415 12.8003 7.31694 12.6831C7.19973 12.5658 7.04076 12.5 6.875 12.5C6.70924 12.5 6.55027 12.5658 6.43306 12.6831C6.31585 12.8003 6.25 12.9592 6.25 13.125V15.625C6.25 16.1223 6.44754 16.5992 6.79917 16.9508C7.15081 17.3025 7.62772 17.5 8.125 17.5H18.125C18.6223 17.5 19.0992 17.3025 19.4508 16.9508C19.8025 16.5992 20 16.1223 20 15.625V4.375C20 3.87772 19.8025 3.40081 19.4508 3.04917C19.0992 2.69754 18.6223 2.5 18.125 2.5H8.125C7.62772 2.5 7.15081 2.69754 6.79917 3.04917C6.44754 3.40081 6.25 3.87772 6.25 4.375V6.875C6.25 7.04076 6.31585 7.19973 6.43306 7.31694C6.55027 7.43415 6.70924 7.5 6.875 7.5C7.04076 7.5 7.19973 7.43415 7.31694 7.31694C7.43415 7.19973 7.5 7.04076 7.5 6.875V4.375Z" fill="#4EB5EF"/>
<path fill-rule="evenodd" clip-rule="evenodd" d="M14.8175 10.4426C14.8757 10.3845 14.9219 10.3155 14.9534 10.2396C14.9849 10.1637 15.0011 10.0823 15.0011 10.0001C15.0011 9.91785 14.9849 9.83645 14.9534 9.76052C14.9219 9.68458 14.8757 9.61561 14.8175 9.55756L11.0675 5.80756C11.0094 5.74945 10.9404 5.70335 10.8645 5.6719C10.7886 5.64045 10.7072 5.62427 10.625 5.62427C10.5428 5.62427 10.4614 5.64045 10.3855 5.6719C10.3096 5.70335 10.2406 5.74945 10.1825 5.80756C10.1244 5.86567 10.0783 5.93465 10.0468 6.01058C10.0154 6.0865 9.99921 6.16788 9.99921 6.25006C9.99921 6.33224 10.0154 6.41361 10.0468 6.48954C10.0783 6.56546 10.1244 6.63445 10.1825 6.69256L12.8663 9.37506H1.875C1.70924 9.37506 1.55027 9.44091 1.43306 9.55812C1.31585 9.67533 1.25 9.8343 1.25 10.0001C1.25 10.1658 1.31585 10.3248 1.43306 10.442C1.55027 10.5592 1.70924 10.6251 1.875 10.6251H12.8663L10.1825 13.3076C10.1244 13.3657 10.0783 13.4347 10.0468 13.5106C10.0154 13.5865 9.99921 13.6679 9.99921 13.7501C9.99921 13.8322 10.0154 13.9136 10.0468 13.9895C10.0783 14.0655 10.1244 14.1344 10.1825 14.1926C10.2406 14.2507 10.3096 14.2968 10.3855 14.3282C10.4614 14.3597 10.5428 14.3758 10.625 14.3758C10.7072 14.3758 10.7886 14.3597 10.8645 14.3282C10.9404 14.2968 11.0094 14.2507 11.0675 14.1926L14.8175 10.4426V10.4426Z" fill="#4EB5EF"/>
</svg>
